<?xml version="1.0" encoding="utf-8"?>
<svg xmlns="http://www.w3.org/2000/svg" xmlns:xlink="http://www.w3.org/1999/xlink" version= "1.1" width="1024px" height="1024px" viewBox="-112 92 1024 1024">
<rect x="-112" y="92" width="1024" height="1024" fill="rgb(0,0,0)"/>
<g id="layer1">
<g style="fill:rgb(255,255,255); fill-opacity:1.0; stroke-linejoin: miter">
<path d="M627.3607,440.25345C625.0276,439.88156,620.9658,439.97882,617.5641,440.13766C614.16235,440.2965,611.33057,440.45038,608.9636,440.56387C606.59656,440.67734,604.61206,440.7308,602.91003,440.7546C601.208,440.7784,599.70056,440.75113,597.62415,440.62195C595.5477,440.49277,592.8933,440.31946,590.2084,440.0727C587.52344,439.82593,584.71106,439.37335,581.6456,438.71515C578.5803,438.05695,575.1736,437.17468,571.29724,436.11398C567.4208,435.0533,562.953,433.8946,559.35254,432.75375C555.75195,431.61295,555.75195,431.61295,558.0753,432.5641C558.0753,432.5641,562.4912,435.03815,566.4253,437.1003C570.35925,439.16248,573.9276,440.76642,577.204,442.0336C580.4802,443.30078,583.5394,444.2895,586.4885,445.0038C589.4375,445.71817,592.3473,446.19116,595.29114,446.25748C598.23486,446.32376,599.8235,446.23257,601.4944,446.07812C603.16516,445.92368,605.02344,445.69522,607.1666,445.3569C609.3098,445.01855,611.8214,444.5678,614.80334,443.96786C617.78516,443.36792,621.3164,442.5719,623.2417,441.73227C627.40625,440.582,625.12146,440.56412,627.3607,440.25345 Z"/>
</g>
<g style="fill:rgb(255,255,255); fill-opacity:1.0; stroke-linejoin: miter">
<path d="M632.00977,438.10406C631.2147,435.09274,628.55005,430.27084,625.64124,426.36728C622.7324,422.46368,619.6742,419.37048,616.49976,417.02C613.3253,414.6695,610.0857,412.9778,606.7993,412.0051C603.5128,411.0324,600.2689,410.73434,597.25574,410.8579C594.24243,410.98148,591.45776,411.41537,588.81335,412.11087C586.16895,412.8064,583.68286,413.71945,581.3751,414.79776C579.0674,415.87607,576.9575,417.08588,575.0718,418.3851C573.1859,419.68436,571.5519,421.04547,570.68567,421.86044C569.81946,422.67538,569.53125,422.96262,569.2312,423.28183C568.93115,423.601,568.6155,423.9473,568.2811,424.31763C567.9468,424.68796,567.54333,425.02222,567.23035,425.28506C566.91736,425.5479,566.91736,425.5479,567.126,425.37268C567.126,425.37268,567.54333,425.02222,567.9635,424.72525C568.38354,424.42825,568.8081,424.189,569.20667,423.97134C569.60535,423.75366,569.97754,423.55746,570.3186,423.3791C570.65967,423.2007,572.4049,422.32312,574.3119,421.45242C576.2189,420.5817,578.2809,419.75348,580.46875,419.00174C582.65674,418.25,584.9531,417.6144,587.333,417.14413C589.7129,416.67386,592.1542,416.4066,594.62305,416.3645C597.0919,416.32242,599.75977,416.5762,602.4154,417.1721C605.0709,417.76794,607.82263,418.56625,610.6835,419.89795C613.5442,421.22964,616.5166,423.20667,619.6382,425.90695C622.75964,428.60724,626.0375,432.1224,628.12146,433.9271C631.725,438.27423,630.49023,435.5616,632.00977,438.10406 Z"/>
</g>
<g style="fill:rgb(255,255,255); fill-opacity:1.0; stroke-linejoin: miter">
<path d="M643.2981,380.7858C642.7904,379.78317,641.3152,378.13223,639.5217,376.6527C637.7283,375.1732,635.6405,373.87152,633.2827,372.74435C630.9248,371.61722,628.3108,370.65533,625.29736,369.78305C622.28406,368.91074,618.879,368.12943,615.3312,367.51535C611.78345,366.90125,608.0929,366.47293,604.26355,366.23465C600.4341,365.99637,596.4684,365.92944,593.17566,366.03326C589.8828,366.1371,587.33765,366.3334,584.7241,366.74377C582.1106,367.15414,579.43494,367.76,576.6854,368.47958C573.9358,369.1992,571.1127,370.03647,569.0896,370.67538C567.0665,371.31427,564.8596,372.0783,561.3331,373.40652C557.8065,374.7347,552.9282,376.66193,546.70654,379.2465C540.485,381.8311,532.97485,385.23627,526.6543,388.0754C520.33374,390.91452,520.33374,390.91452,524.6747,389.3837C524.6747,389.3837,533.73865,387.40784,541.2129,385.42783C548.68713,383.44785,554.6714,381.74792,559.20264,380.44724C563.73376,379.14655,566.81665,378.30054,568.4514,377.907C570.08606,377.5135,572.95374,376.8409,575.6571,376.26486C578.3606,375.68884,580.963,375.21753,583.46277,374.8447C585.9625,374.47186,588.3423,374.066,590.61,373.75278C592.8778,373.43954,596.71326,373.10645,600.4297,372.94266C604.1461,372.7789,607.73865,372.7775,611.21155,372.9191C614.68445,373.06073,618.0394,373.3638,621.2943,373.82285C624.5492,374.28192,627.2324,374.74603,629.6709,375.33536C632.1094,375.92465,634.3435,376.65546,636.3899,377.52835C638.4363,378.40128,640.3119,379.4208,641.3187,379.8481C643.0625,381.01932,642.56104,380.04193,643.2981,380.7858 Z"/>
</g>
<g>
<g style="fill:rgb(254,254,254); fill-opacity:1.0; stroke-linejoin: miter">
<path d="M25.63565,814.50604L29.72129,877.5416L-6.2712164,877.5416L25.63565,814.50604 Z M12.989639,788.0467L-55.493404,919.7599L-26.893955,919.7599L-16.777142,899.3317L30.694054,899.3317L32.05593,919.7599L61.822716,919.7599L51.705894,788.0467 Z M95.86969,821.3154L75.05239,919.7599L102.28996,919.7599L116.88153,850.304Q117.659744,846.9966,119.21617,845.8293Q120.578064,844.8565,123.49637,844.8565L162.79628,844.8565L167.85469,821.3154L139.25525,821.3154Q132.83496,821.3154,128.16566,823.84467Q123.69092,826.37384,119.994385,832.0159L122.32904,821.3154 Z M201.70712,821.3154Q191.20122,821.3154,186.1428,825.98474Q181.27896,830.65405,179.13885,840.5763L166.49284,900.499Q165.52007,905.36285,165.52007,908.0866Q165.52007,914.1178,169.21658,917.03613Q172.71855,919.7599,180.88986,919.7599L250.34564,919.7599L255.40405,895.24603L199.95615,895.24603Q195.4814,895.24603,195.4814,892.32776Q195.4814,891.7441,195.67596,891.1604Q195.67596,890.5768,195.8705,889.7985L204.23633,850.49854Q205.01456,847.19116,206.18188,846.2184Q207.34918,845.2456,210.65662,845.2456L266.10452,845.2456L271.16293,821.3154 Z M350.34647,788.0467L322.5252,919.7599L410.85278,919.7599L416.49484,893.10596L357.73953,893.10596L379.9187,788.0467 Z M451.12552,821.3154L446.65076,842.71643L513.3828,842.71643Q516.10657,842.71643,517.07935,843.68915Q518.052,844.4674,518.052,846.0238Q518.052,847.3857,517.85754,848.16394L507.54617,896.4134L462.0205,896.4134Q458.32397,896.4134,458.32397,893.8842Q458.32397,893.3005,458.51855,892.71686Q458.51855,892.1332,458.71307,891.1604L460.8532,880.84906Q461.4369,877.7362,462.6042,876.7634Q463.77148,875.79065,466.4953,875.79065L502.29318,875.79065L505.79514,859.05896L455.7948,859.05896Q451.12552,859.05896,447.81805,860.03174Q444.51065,860.80994,442.17603,862.95Q439.84137,865.09015,438.2849,868.7867Q436.7285,872.4832,435.56116,877.9307L430.69733,901.2772Q429.72455,905.75195,429.72455,908.47577Q429.72455,914.1178,433.03195,917.03613Q436.33936,919.7599,443.73242,919.7599L529.53076,919.7599L546.2623,840.5763Q547.2352,835.71246,547.2352,832.9887Q547.2352,826.9575,543.73315,824.0392Q540.2312,821.3154,531.6709,821.3154 Z M579.33655,780.07L549.7644,919.7599L577.19653,919.7599L606.7687,780.07 Z M643.9286,821.3154L592.76086,869.37036L590.6207,879.29266L629.5316,879.29266Q632.839,879.29266,634.2008,880.2654Q635.56274,881.23816,635.56274,883.5728Q635.56274,884.351,635.36816,885.3238Q635.36816,886.102,635.1736,887.07477L628.36426,919.7599L655.6018,919.7599L663.5785,881.62726Q664.3567,877.9307,664.3567,874.4288Q664.3567,860.80994,649.5707,860.80994L630.69885,860.80994L673.8899,821.3154 Z M713.1898,821.3154Q702.48926,821.3154,697.4309,825.98474Q692.567,830.65405,690.427,840.5763L677.781,900.499Q676.8081,905.36285,676.8081,908.0866Q676.8081,914.1178,680.50476,917.03613Q684.0067,919.7599,692.37256,919.7599L772.1398,919.7599L776.80896,897.38617L710.46606,897.38617Q707.9369,897.38617,706.964,896.8025Q705.99133,896.2188,705.99133,894.46783Q705.99133,893.8842,706.1858,893.10596Q706.1858,892.5223,706.3804,891.5495L715.5244,849.13666Q716.3026,845.8293,717.47,844.6619Q718.6373,843.68915,721.9447,843.68915L761.0502,843.68915Q763.38477,843.68915,764.35767,844.2728Q765.13574,844.8565,765.13574,846.41296Q765.13574,847.96936,764.9413,848.94214L762.02295,862.1718L722.33386,862.1718L719.02637,878.5144L784.5912,878.5144L792.76245,839.7981Q793.54065,836.10156,793.54065,832.5996Q793.54065,826.9575,790.2333,824.0392Q787.12036,821.3154,779.7274,821.3154 Z"/>
</g>
</g>
<g style="fill:rgb(255,255,255); fill-opacity:1.0; stroke-linejoin: miter">
<path d="M910.8369,-350.36026C912.074,-351.79956,913.8041,-354.88486,915.31836,-357.8988C916.83276,-360.91272,918.1614,-363.84036,919.33484,-366.6684C920.5082,-369.49643,921.5414,-372.21936,922.1992,-374.9441C922.85706,-377.66882,923.34607,-380.2047,923.75806,-382.48007C924.17017,-384.75543,924.5194,-386.76675,924.771,-388.52286C925.0226,-390.27896,925.21106,-391.77158,925.32166,-393.12512C925.43225,-394.4787,925.4717,-395.75665,925.4706,-396.91513C925.4695,-398.0736,925.4337,-399.1105,925.3635,-400.02386C925.29333,-400.93723,925.2821,-401.72168,925.2883,-402.2505C925.29456,-402.77927,925.29456,-402.77927,925.2904,-402.42673C925.2904,-402.42673,925.2821,-401.72168,925.13806,-400.90997C924.99414,-400.09827,924.7494,-399.1843,924.4595,-398.16315C924.1697,-397.14203,923.83374,-396.01227,923.45935,-394.7801C923.08496,-393.5479,922.68286,-392.3328,922.17786,-390.84592C921.673,-389.35904,921.0785,-387.61453,920.40784,-385.60934C919.7373,-383.60416,918.98914,-381.3385,918.1566,-378.82983C917.3242,-376.32117,916.5293,-373.7397,915.8141,-370.95184C915.0989,-368.164,914.29956,-365.22397,913.4232,-362.128C912.547,-359.03204,911.61743,-355.7695,911.4159,-353.96487C910.50867,-350.4998,911.5427,-352.02072,910.8369,-350.36026 Z"/>
</g>
<g style="fill:rgb(255,255,255); fill-opacity:1.0; stroke-linejoin: miter">
<path d="M666.1282,281.78802C666.40137,281.77325,666.92444,281.65417,667.4464,281.5393C667.96826,281.4244,668.4745,281.32614,668.94836,281.26764C669.4221,281.2091,669.8485,281.2031,670.2097,281.26346C670.5708,281.32382,670.8611,281.44885,676.905,285.69702C682.94885,289.94525,693.6052,299.03235,702.43774,309.1969C711.27014,319.3615,718.27515,330.25354,723.4877,341.33417C728.7002,352.4148,732.12085,363.2538,733.57605,373.30716C735.03125,383.3605,734.5415,392.0947,731.9636,402.78693C729.38574,413.47916,728.34595,426.84464,729.7706,439.39713C731.1953,451.94962,733.932,463.79135,736.6173,475.10538C739.3025,486.41946,740.9263,497.33804,740.33984,508.07947C739.7533,518.82086,736.0419,529.7311,727.1865,543.53467C718.3312,557.33826,708.838,571.75775,701.4503,583.53613C694.0626,595.3146,688.35376,604.5908,683.8196,611.50696C679.2854,618.4231,675.5829,623.07007,672.386,625.6891C669.1892,628.30817,666.0117,629.40906,662.0563,629.4909C658.10095,629.57275,653.7317,628.9505,648.93066,627.68524C644.1295,626.42,638.87683,624.5018,633.15173,621.92834C627.42664,619.3549,621.21216,616.13086,614.4839,612.2656C607.7556,608.4004,600.4917,603.903,590.2073,597.4219C579.92285,590.9408,568.91003,583.6814,560.30005,577.6809C551.69006,571.68036,545.1354,566.82306,540.1847,562.9878C535.2339,559.1526,531.51294,556.26135,528.5748,554.22687C525.6367,552.1924,523.17737,550.9656,521.53235,550.2469C519.88745,549.5282,519.88745,549.5282,520.948,550.06665C520.948,550.06665,522.9612,551.32153,524.98035,553.4168C526.9995,555.5121,529.57446,558.38135,533.17944,562.1867C536.7843,565.99207,541.7892,570.8104,548.6146,576.7678C555.43994,582.7252,564.4546,589.8839,576.1157,598.3059C587.77686,606.72797,595.4734,611.8499,602.7252,616.2388C609.97705,620.6277,616.7556,624.4059,623.10754,627.5625C629.4596,630.7191,635.4248,633.2436,641.05566,635.1173C646.6864,636.9911,652.0244,638.19293,657.17566,638.68396C662.3268,639.1749,667.99207,638.5968,673.08203,636.1029C678.1721,633.6091,682.5768,629.3489,686.96277,623.39124C691.34863,617.4336,696.32983,609.56256,702.5563,599.4744C708.7826,589.3863,716.7283,576.8646,727.0238,561.5792C737.3192,546.29376,744.5813,533.6571,747.594,521.1374C750.6068,508.61768,750.2893,496.51987,748.1211,484.80496C745.9529,473.09003,743.0692,461.58975,740.7754,450.08978C738.48157,438.5898,737.7444,426.92422,739.7903,414.56607C741.83606,402.20792,743.8518,393.38132,743.6926,382.84778C743.53357,372.31424,741.2168,360.88748,736.786,349.0976C732.3552,337.3077,725.69055,325.70056,716.9597,314.8665C708.22876,304.0324,697.48596,294.50073,684.8015,287.1394C672.11694,279.778,671.4468,279.55133,670.8395,279.5265C670.2322,279.50165,669.6625,279.6005,669.1288,279.78055C668.5951,279.9606,668.0919,280.2004,667.6117,280.47235C667.1315,280.74432,666.66907,281.02835,666.45886,281.2069C666.00806,281.47882,666.36865,281.69464,666.1282,281.78802 Z"/>
</g>
<g style="fill:rgb(255,255,255); fill-opacity:1.0; stroke-linejoin: miter">
<path d="M531.4238,525.58545C528.6305,527.8966,524.36523,532.0762,520.5292,534.7327C516.693,537.3893,513.11206,538.71826,509.52695,539.02734C505.9418,539.3364,502.1157,538.8053,497.8621,537.5639C493.6085,536.3225,488.84814,534.50464,481.72205,530.99817C474.59595,527.4917,466.93237,520.9751,461.2333,512.81726C455.53427,504.65942,451.6594,495.62674,449.7842,486.64597C447.909,477.66516,448.06033,469.63467,450.07584,463.7009C452.09134,457.76712,455.68353,454.52063,458.72397,453.81247C461.7644,453.10428,462.96408,453.20645,464.2952,453.4639C465.62634,453.7213,467.0822,454.17865,468.6683,454.82895C470.2544,455.47922,471.96207,456.34683,473.79788,457.42844C475.63367,458.51,477.6129,459.79575,479.14243,460.86035C480.67194,461.92496,481.59854,462.54617,482.42438,463.06778C483.2502,463.58936,483.96823,464.01895,484.57913,464.35397C485.19003,464.68903,485.6859,464.93814,486.03775,465.1479C486.3896,465.35764,486.6359,465.4791,486.77158,465.52072C486.90723,465.56232,486.90723,465.56232,486.81677,465.53458C486.81677,465.53458,486.6359,465.4791,486.35696,465.32455C486.07806,465.16998,485.71716,464.89365,485.3043,464.463C484.89142,464.03238,484.4,463.48654,483.82144,462.83435C483.2429,462.18216,482.57962,461.42007,481.82047,460.5497C481.0613,459.67938,479.28906,457.79178,477.51648,456.16345C475.7439,454.53513,473.996,453.1539,472.2679,452.0237C470.5398,450.89352,468.84424,449.98816,467.17374,449.3186C465.50327,448.64905,463.86478,448.19308,462.02667,447.9953C460.18857,447.79752,453.13,449.12592,448.03568,454.7004C442.94135,460.27493,440.5588,468.53494,440.58725,478.28055C440.61566,488.02615,443.04526,498.48373,448.0223,508.5804C452.9994,518.6771,460.66455,527.4049,470.68723,533.5432C480.70987,539.6815,486.34985,541.5774,491.37524,542.95874C496.40063,544.3401,501.1732,545.12524,505.77267,545.01636C510.3721,544.9075,514.782,543.6648,518.9082,541.07477C523.0344,538.48474,526.8544,534.43384,528.26843,531.56006C531.69666,525.7742,529.40955,528.49756,531.4238,525.58545 Z"/>
</g>
<g style="fill:rgb(217,0,254); fill-opacity:1.0; stroke-linejoin: miter">
<path d="M700.968,335.7414C698.9601,332.5675,694.07837,327.7445,689.13513,323.81628C684.1919,319.88806,679.27246,316.73932,674.4166,314.28342C669.56067,311.82755,664.7781,310.03156,660.08875,308.83954C655.3993,307.64758,650.819,307.00937,645.2583,307.10812C639.69763,307.20685,633.3705,308.38428,627.505,310.3452C621.6394,312.3061,616.2285,314.86224,611.26465,317.82062C606.30066,320.77902,601.77466,323.9848,597.68604,327.26935C593.5974,330.55383,589.9624,333.81445,588.239,335.47424C586.5155,337.13403,586.3805,337.26614,586.23157,337.41132C586.08264,337.5565,585.91077,337.70178,585.7112,337.84015C585.5116,337.9785,585.2965,338.1273,585.1273,338.2441C584.9581,338.36096,584.9581,338.36096,585.0709,338.28308C585.0709,338.28308,585.2965,338.1273,585.5065,337.98196C585.71643,337.83667,585.91077,337.70178,586.1056,337.6004C586.3004,337.49902,586.4824,337.41193,586.6476,337.33252C586.8126,337.2531,590.9271,335.16852,595.25256,332.70612C599.5779,330.24374,604.1366,327.6407,608.9387,325.136C613.74097,322.63126,618.7864,320.39764,624.0663,318.63538C629.3462,316.87305,634.8451,315.69678,640.61487,315.27502C646.38464,314.85327,650.2516,314.87305,654.3678,315.32907C658.484,315.7851,662.7971,316.71417,667.3197,318.19897C671.8423,319.68378,676.6,321.74274,681.6017,324.45468C686.6033,327.1666,691.8873,330.54346,694.9872,332.0556C700.74475,335.98676,698.3102,333.3224,700.968,335.7414 Z"/>
</g>
<g style="fill:url(#grad0); fill-opacity:1.0; stroke-linejoin: miter">
<path d="M587.12964,304.27838C543.0365,347.5063,683.276,756.4123,408.53204,756.4123C405.655,756.4123,402.73245,756.36743,399.76373,756.27686C404.5406,755.5546,408.1849,753.85156,412.4637,751.5287C631.5419,632.59436,511.0132,428.33292,568.88855,331.25766L587.12964,304.27838 Z"/>
</g>
<g style="fill:url(#grad1); fill-opacity:1.0; stroke-linejoin: miter">
<path d="M726.66296,326.25568L709.89355,302.72717C685.3008,274.1271,655.53235,264.72525,611.93884,264.72525C609.54724,264.72525,607.11414,264.75354,604.6378,264.80853C566.7864,265.64886,542.2258,270.2265,529.51514,276.06366C511.20834,284.4707,493.68143,294.40656,480.01703,310.43472C457.22284,337.17203,443.74814,371.15814,437.17816,410.746C434.5831,426.38272,432.27036,442.51904,431.43405,459.28506C426.64465,555.3013,424.2639,603.32385,423.69156,603.32385C423.67578,603.32385,423.66138,603.2875,423.64835,603.21454C421.69992,625.2993,418.37195,644.2102,413.66434,659.9473C408.9568,675.6842,402.9367,686.91284,397.3221,694.9323C392.17624,702.2823,374.95737,719.6233,343.85284,745.7914C525.1334,697.3068,505.96365,295.14307,633.47156,295.14307C644.0747,295.14307,655.692,297.924,668.51587,303.92328C704.1919,325.75647,704.2086,325.76617,704.20984,325.76617C704.20984,325.76617,704.20984,325.76617,704.20984,325.76617C704.22437,325.76617,705.6279,327.31866,707.036,328.94113 Z"/>
</g>
<g style="fill:url(#grad2); fill-opacity:1.0; stroke-linejoin: miter">
<path d="M542.5149,272.9238C555.2411,271.2823,567.61194,270.3327,579.5703,270.3327C652.32666,270.3327,709.8142,305.4823,739.17456,433.79572C745.0204,455.39453,748.6168,475.8409,749.10535,479.69327L757.0366,511.4915C759.1738,525.80023,768.6875,554.6188,771.33044,564.91205C773.1206,571.88367,776.85925,582.6531,782.5,597.2546C784.193,601.6371,792.8817,621.1537,808.7352,655.7405L815.05273,671.74744C818.3456,680.35767,822.2422,701.04614,826.74243,733.81287C828.38635,710.82886,827.3242,690.17865,823.1516,671.95325C821.4298,664.4326,818.34485,655.85,814.30005,646.10913L787.32715,584.652C784.58093,576.96704,782.5543,570.1292,781.0149,564.19727C778.2648,553.60046,775.2738,541.1322,773.5337,526.56256C759.58264,410.64435,750.1044,268.09106,623.62805,265.11212C604.397,264.98935,594.88,265.1679,583.9785,265.59174C560.036,266.52258,546.22986,269.29526,542.5149,272.9238 Z"/>
</g>
<g style="fill:rgb(255,255,255); fill-opacity:1.0; stroke-linejoin: miter">
<path d="M687.8585,395.88293C689.4851,395.30118,692.09534,393.69003,694.3352,392.16208C696.5751,390.63412,698.52747,389.2781,700.2645,388.16333C702.00146,387.04855,703.58057,386.2232,705.0803,385.71628C706.5801,385.20935,708.08984,385.00076,709.42834,384.92087C710.76697,384.84097,711.91907,384.89487,713.2085,385.0988C714.4979,385.30273,715.937,385.66742,717.5359,386.21725C719.13464,386.7671,720.89966,387.5197,722.8552,388.46957C724.81067,389.41946,726.96436,390.58582,728.36707,391.35892C729.7698,392.132,730.25085,392.4105,730.73694,392.70435C731.2229,392.9982,731.7158,393.30536,732.21155,393.63058C732.7074,393.95578,733.1467,394.35962,733.4684,394.67816C733.79004,394.9967,733.79004,394.9967,733.5757,394.78433C733.5757,394.78433,733.1467,394.35962,732.754,393.91037C732.3612,393.46112,731.9922,392.99615,731.61633,392.5469C731.24036,392.0977,730.8534,391.66922,730.4585,391.25394C730.0635,390.83868,728.1272,388.96136,726.2335,387.40976C724.3397,385.85815,722.5199,384.5866,720.77673,383.56595C719.03357,382.54532,717.3645,381.7589,715.7678,381.1774C714.171,380.5959,712.63745,380.22794,711.13806,380.0372C709.6387,379.84644,707.4192,379.97366,705.3635,380.65146C703.30786,381.32928,701.45386,382.3509,699.72327,383.65366C697.99255,384.95645,696.2832,386.49203,694.4935,388.26266C692.70374,390.03326,690.74744,392.0375,689.8539,393.33182C687.6575,395.61908,689.16125,394.89,687.8585,395.88293 Z"/>
</g>
<g style="fill:rgb(255,255,255); fill-opacity:1.0; stroke-linejoin: miter">
<path d="M684.6732,454.01743C684.7156,455.82,685.34314,458.80606,685.8871,461.17053C686.431,463.535,686.8496,465.28952,687.10986,466.42993C687.3701,467.57034,687.44775,468.01508,687.85693,469.43417C688.266,470.85324,689.0471,473.24835,689.48486,474.02536C689.9225,474.80234,690.42053,475.56894,691.0442,476.434C691.66797,477.299,692.42676,478.26608,693.3158,479.34735C694.2047,480.42865,695.3345,481.73523,696.1688,482.48102C697.00305,483.2268,697.6693,483.8737,698.27246,484.50986C698.8755,485.14603,699.41565,485.77032,699.97107,486.31757C700.5265,486.8648,701.0198,487.44543,701.2977,487.788C701.5757,488.13055,701.8257,488.5053,702.06226,488.9381C702.2988,489.37094,702.5193,489.8638,702.72046,490.41815C702.9215,490.97253,703.1017,491.56,703.35913,492.8158C703.61646,494.0716,703.75195,495.45047,703.7722,496.98203C703.7925,498.51358,703.69226,500.19684,703.4696,502.0301C703.24695,503.8633,702.8967,505.82156,702.4092,507.9389C701.92163,510.0562,701.4359,511.90515,700.9745,513.4871C700.51306,515.0691,700.03955,516.3769,699.69165,517.2445C699.3436,518.11206,699.3436,518.11206,699.67566,517.5925C699.67566,517.5925,700.6399,516.73,701.5215,515.4744C702.4031,514.2189,703.3131,512.6605,704.2173,510.7948C705.12146,508.92908,706.0492,506.74283,706.6874,504.74048C707.32544,502.7381,707.7888,500.82727,708.0941,498.9983C708.3994,497.16934,708.5327,495.4191,708.4967,493.74667C708.4607,492.07425,708.2551,490.54083,708.0853,489.69867C707.9154,488.8565,707.6963,488.06326,707.4253,487.30527C707.1543,486.54727,706.82874,485.82593,706.44543,485.1442C706.06213,484.46246,705.6537,483.86786,705.07996,483.11383C704.5062,482.35983,703.8966,481.5738,703.1417,480.88147C702.38684,480.18912,701.57764,479.50983,700.71436,478.84213C699.85095,478.17444,699.1432,477.69626,698.1555,476.73697C697.16785,475.7777,696.2776,474.8782,695.53955,474.0984C694.8014,473.31857,694.2102,472.66995,693.7881,472.1543C693.3661,471.63864,693.2095,471.46692,692.18884,469.3024C691.1682,467.13788,691.2234,467.22382,690.933,466.38998C690.64246,465.55612,690.1008,464.23648,689.2987,462.373C688.49646,460.5095,687.3933,458.10904,686.4696,456.82217C684.98694,453.90958,685.2322,455.6432,684.6732,454.01743 Z"/>
</g>
<g style="fill:rgb(255,255,255); fill-opacity:1.0; stroke-linejoin: miter">
<path d="M692.4358,487.40118C692.45984,486.9561,692.2052,486.10736,691.6719,485.28494C691.13855,484.46252,690.33215,483.69647,689.2743,482.99527C688.21643,482.29407,686.9197,481.6467,685.69946,481.1975C684.4791,480.74835,683.45544,480.49667,682.35974,480.34885C681.26416,480.20102,680.10034,480.14438,678.8721,480.19537C677.6438,480.24637,676.3508,480.38412,675.4927,480.51294C674.63464,480.64178,674.0298,480.87216,673.49927,481.16888C672.9689,481.4656,672.41113,481.8373,671.79224,482.30646C671.1732,482.7756,670.46875,483.33408,669.62854,484.23438C668.7883,485.1347,668.3063,486.05115,667.55286,487.06335C666.79944,488.0756,665.8638,489.23468,664.74756,490.53217C663.6312,491.82965,662.3418,493.26843,660.9673,494.72528C659.5928,496.1821,658.2881,497.4885,657.1339,498.6587C655.9796,499.82892,654.96326,500.8513,654.0702,501.71222C653.177,502.57318,652.37915,503.23465,651.7959,503.569C651.21265,503.90335,651.21265,503.90335,651.60144,503.68045C651.60144,503.68045,652.37915,503.23465,653.39014,502.76648C654.4011,502.29828,655.58203,501.69547,656.9166,500.94022C658.2511,500.18497,659.7261,499.26413,661.3485,498.16574C662.9708,497.06735,664.66016,495.7387,666.1367,494.5061C667.61316,493.2735,668.8944,492.11487,669.9961,491.03824C671.0978,489.9616,672.0088,488.94806,672.6449,488.1395C673.281,487.33093,673.7107,486.86905,674.2412,486.33566C674.7717,485.80228,675.2074,485.40604,675.5156,485.14203C675.82385,484.87802,675.9686,484.77145,675.952,484.7721C675.9354,484.77274,677.1261,484.42197,678.20447,484.18066C679.28284,483.93933,680.2947,483.78568,681.2411,483.7C682.1874,483.61432,683.0713,483.61295,683.8943,483.68427C684.7173,483.7556,686.1156,484.03647,687.28723,484.37207C688.45886,484.7077,689.4164,485.0937,690.16296,485.5528C690.9094,486.01193,691.46716,486.5473,691.74316,486.82117C692.11365,487.48022,692.3413,487.01602,692.4358,487.40118 Z"/>
</g>
<g style="fill:rgb(255,255,255); fill-opacity:1.0; stroke-linejoin: miter">
<path d="M634.95386,560.1598C637.7551,560.656,643.2787,560.57007,644.5039,560.2993C645.729,560.02856,646.7732,559.7401,647.7291,559.4016C648.68494,559.06305,649.5574,558.68066,650.3522,558.2542C651.14685,557.82776,651.59375,557.5373,652.2721,557.2261C652.95044,556.9148,653.84985,556.33606,654.8187,555.5781C655.7875,554.8202,656.85205,553.88135,658.0105,552.7416C659.16895,551.6018,660.4115,550.2997,661.06946,549.60333C661.7274,548.9069,662.4094,548.109,663.0901,547.2397C663.7709,546.37036,664.45166,545.42957,665.12573,544.4122C665.7999,543.3948,666.2566,542.6578,668.074,540.62885C669.89124,538.6,670.5736,538.02563,671.30493,537.46936C672.03613,536.9131,672.6221,536.53485,673.0226,536.33997C673.4231,536.145,673.57874,536.1137,673.62427,536.15295C673.6699,536.1922,673.5231,536.18207,673.3102,536.15C673.0974,536.118,673.12537,536.13947,673.29126,536.2325C673.45703,536.32544,673.72437,536.48755,673.91614,536.5312C674.1079,536.5749,676.94104,538.8191,678.5016,540.03455C680.06226,541.25,680.42114,541.4994,680.7793,541.6879C681.1373,541.8764,681.4884,542.015,681.83154,542.1162C682.17456,542.2174,682.51184,542.28735,683.55115,542.3041C684.59045,542.32074,685.91235,542.1185,687.1677,541.68176C688.4231,541.245,689.58105,540.5875,690.63477,539.754C691.68835,538.92053,692.629,537.91626,692.4166,537.8306C692.2042,537.745,692.20386,537.73535,692.1151,537.72473C692.02637,537.7141,691.86084,537.678,691.6648,537.5912C691.46875,537.5045,691.29626,537.37646,692.14185,538.28735C692.9873,539.19824,694.81433,541.2203,696.4835,543.1743C698.1527,545.12836,699.68164,547.0029,701.0603,548.8081C702.43884,550.6134,703.6594,552.35596,704.49854,553.5868C705.33765,554.8176,705.823,555.6598,706.2988,556.68115C706.77454,557.70264,707.2499,558.8987,707.71545,560.27057C708.181,561.64246,708.6487,563.1875,708.8241,564.4492C708.9995,565.71094,708.9995,565.71094,708.9143,564.8661C708.9143,564.8661,708.83923,563.1656,708.85364,561.5838C708.86804,560.0021,708.7772,558.55566,708.584,557.24304C708.39075,555.9304,708.08545,554.75366,707.6986,553.7246C707.3119,552.69556,706.4652,550.7511,705.4203,548.72455C704.37537,546.698,703.155,544.6029,701.7709,542.4342C700.3867,540.2655,698.82825,538.03284,697.1102,535.72455C695.39233,533.41626,694.8281,532.8693,694.2689,532.5416C693.7097,532.214,693.09546,532.0206,692.4896,531.9591C691.8839,531.89746,691.3147,531.9418,690.2573,532.37805C689.19995,532.81433,688.2429,533.82434,687.6095,534.33203C686.9762,534.83966,686.37964,535.1881,685.81177,535.3949C685.2439,535.6016,684.69434,535.7084,684.0825,535.7081C683.4706,535.7079,683.8794,535.7301,683.8556,535.7173C683.8318,535.70447,683.8524,535.7057,683.9188,535.7307C683.9851,535.75586,684.0956,535.8158,684.1688,535.86005C684.24194,535.9043,681.5348,533.4021,679.70557,531.8451C677.8762,530.2881,677.41797,529.944,676.9375,529.7077C676.45703,529.47144,675.9746,529.26825,675.4303,529.0987C674.88586,528.9291,674.17334,528.82056,673.5051,528.8342C672.8368,528.84796,671.6714,529.0907,670.655,529.5375C669.63855,529.98425,668.7009,530.5831,667.78076,531.323C666.8605,532.06287,665.9264,532.9435,664.4558,534.7043C662.9852,536.4651,661.15,538.87964,660.51013,540.0617C659.87036,541.2438,659.35535,542.1762,658.8456,543.02856C658.3357,543.881,657.83203,544.6526,657.3358,545.3435C656.8397,546.0345,656.29846,546.7051,655.2549,548.0165C654.2114,549.3279,653.2931,550.40204,652.5072,551.2627C651.7213,552.1233,651.0581,552.74097,650.57056,553.12585C650.0829,553.51086,649.4049,553.8485,648.82166,554.3299C648.2385,554.8113,647.6676,555.203,646.98035,555.5976C646.29297,555.9922,645.49304,556.39075,644.5835,556.79376C643.6738,557.1968,642.8436,557.5574,640.23425,558.5386C634.91614,559.8302,637.6626,559.84937,634.95386,560.1598 Z"/>
</g>
<g style="fill:rgb(255,255,255); fill-opacity:1.0; stroke-linejoin: miter">
<path d="M698.4684,573.20166C697.916,574.0603,697.0702,575.6105,696.1593,576.8091C695.2484,578.0077,694.2639,578.88684,693.219,579.513C692.1742,580.13916,691.0558,580.5479,689.85315,580.77075C688.6505,580.99365,687.3635,581.0547,685.70715,580.91016C684.0509,580.7656,681.97986,580.5365,679.79443,580.17926C677.6089,579.82196,675.3827,579.2974,673.18774,578.68097C670.9927,578.06445,668.89075,577.3981,666.9402,576.77435C664.9896,576.1506,663.2627,575.58826,662.4823,575.2968C661.7019,575.0054,661.64465,575.0183,661.6233,575.02875C661.60205,575.0392,661.6167,575.047,661.66736,575.0522C661.718,575.0574,661.8047,575.06006,661.8877,575.06067C661.9707,575.0613,661.9707,575.0613,661.9154,575.0609C661.9154,575.0609,661.8047,575.06006,661.7301,575.0565C661.6554,575.0531,661.6167,575.047,661.614,575.0383C661.6113,575.02966,661.64465,575.0183,661.71387,575.00446C661.7832,574.9906,663.114,575.8745,664.67615,576.9816C666.2384,578.0888,668.0532,579.2445,670.079,580.35114C672.10474,581.4578,674.2908,582.47504,676.58545,583.33185C678.88,584.1887,681.24365,584.83374,683.6206,585.01166C685.99744,585.1896,687.6804,585.0171,689.2617,584.6451C690.84314,584.273,692.319,583.6503,693.6417,582.7652C694.9645,581.8801,696.10046,580.7348,696.9856,579.3146C697.8707,577.89435,698.4667,576.2063,698.5077,575.22516C698.79016,573.2825,698.2268,574.1632,698.4684,573.20166 Z"/>
</g>
<g style="fill:rgb(255,255,255); fill-opacity:1.0; stroke-linejoin: miter">
<path d="M689.2738,556.2611C688.9912,556.4575,688.4961,556.8744,687.9817,557.2224C687.4674,557.57043,686.93835,557.85034,686.39526,558.0635C685.8522,558.2766,685.2894,558.4149,684.7069,558.4925C684.12427,558.57007,683.5115,558.5676,682.86694,558.4891C682.2224,558.4105,681.54224,558.2607,680.7672,558.1931C679.9922,558.1255,679.14355,557.9379,678.2092,557.6537C677.275,557.3695,676.2573,556.9697,675.15027,556.4497C674.04333,555.9297,672.8463,555.2787,672.2715,554.83765C671.69653,554.3966,671.6859,554.3966,671.68054,554.3966C671.6753,554.3966,671.6753,554.3966,671.68054,554.3966C671.6859,554.3966,671.69653,554.3966,671.70715,554.3966C671.7178,554.3966,671.7178,554.3966,671.7107,554.3966C671.7107,554.3966,671.69653,554.3966,671.68774,554.3966C671.67883,554.3966,671.6753,554.3966,671.677,554.3966C671.67883,554.3966,671.6859,554.3966,671.69836,554.3966C671.7107,554.3966,672.7645,555.37885,673.7012,556.3381C674.6378,557.29724,675.57495,558.1044,676.5104,558.7641C677.4458,559.4238,678.375,559.9437,679.2942,560.3257C680.2134,560.70764,681.1068,561.01953,681.99097,561.0183C682.8751,561.017,683.70386,560.9015,684.4689,560.69745C685.23376,560.49335,685.9297,560.1955,686.551,559.81366C687.17236,559.4318,687.7217,558.9829,688.19446,558.4702C688.66724,557.9575,689.067,557.3921,689.2042,557.0599C689.5405,556.4584,689.0746,556.5304,689.2738,556.2611 Z"/>
</g>
<g style="fill:rgb(255,255,255); fill-opacity:1.0; stroke-linejoin: miter">
<path d="M699.19666,444.85574C700.1959,443.12457,701.5477,439.75803,702.92017,436.80417C704.2925,433.85028,705.7163,431.35245,707.2218,429.379C708.7273,427.40558,710.2932,425.99612,711.8639,425.11765C713.4346,424.23917,715.00964,423.648,716.3849,423.50043C717.76025,423.35284,718.8264,423.42072,719.99963,423.6584C721.17285,423.89606,722.45874,424.30356,723.85547,424.89987C725.2522,425.49622,726.7634,426.28397,728.38916,427.27274C730.015,428.26147,731.7595,429.45416,732.92773,430.2808C734.0958,431.1074,734.5846,431.48312,735.1106,431.9269C735.6365,432.3707,736.1908,432.88873,736.78174,433.47324C737.3727,434.0577,737.9657,434.7312,738.344,435.32126C738.7223,435.9113,738.7223,435.9113,738.4701,435.5179C738.4701,435.5179,737.9657,434.7312,737.5768,433.93948C737.18787,433.1478,736.8059,432.4167,736.41113,431.75894C736.01636,431.10117,735.6151,430.51016,735.20496,429.9963C734.7947,429.48248,733.2737,427.72748,731.7368,426.21738C730.19995,424.70724,728.66223,423.44534,727.1487,422.3901C725.63513,421.3349,724.1334,420.49863,722.6471,419.86462C721.16077,419.23062,719.6835,418.8188,718.1688,418.6083C716.65405,418.39783,714.02515,418.5431,711.537,419.5446C709.0487,420.54605,706.9624,422.28555,705.2588,424.53616C703.5552,426.7868,702.1836,429.47348,701.1052,432.55173C700.02673,435.63,699.2512,439.07883,699.27075,440.99265C698.8728,444.78378,699.614,442.97845,699.19666,444.85574 Z"/>
</g>
<g style="fill:rgb(255,255,255); fill-opacity:1.0; stroke-linejoin: miter">
<path d="M697.0835,444.8373C697.3793,445.0481,698.4088,445.63055,699.97217,446.48282C701.5354,447.3351,703.56213,448.3214,705.9396,449.33554C708.317,450.3497,710.9595,451.29996,713.7617,452.07553C716.56396,452.85114,719.47253,453.0607,721.7528,452.9465C724.0331,452.83228,725.6831,452.54913,727.22656,452.06088C728.7699,451.57263,730.1704,450.86,731.37744,449.91208C732.5845,448.96414,733.5337,447.76007,734.1858,446.3323C734.8379,444.9045,735.16003,443.25983,735.30225,442.39206C735.44446,441.5243,735.4608,441.54404,735.468,441.55984C735.4751,441.57562,735.473,441.58746,735.4618,441.59537C735.45056,441.60327,735.4302,441.6072,735.4103,441.6082C735.3904,441.60916,735.3904,441.60916,735.4037,441.60852C735.4037,441.60852,735.4302,441.6072,735.44763,441.60196C735.46497,441.59668,735.473,441.58746,735.47205,441.5743C735.47107,441.56116,735.4608,441.54404,735.4414,441.52298C735.422,441.50192,734.8982,443.1831,734.06616,444.462C733.23413,445.74088,732.2881,446.68835,731.24475,447.36954C730.2014,448.05072,729.06335,448.52185,727.81274,448.7975C726.56213,449.07312,725.21216,449.2022,723.7876,449.17416C722.36304,449.14612,719.82654,448.85513,717.20056,448.46866C714.5746,448.08218,711.8938,447.64713,709.3113,447.12033C706.72876,446.59354,704.3612,446.03137,702.3358,445.55313C700.3104,445.07492,698.74194,444.737,698.1301,444.6793C697.1791,444.51962,697.4226,444.9393,697.0835,444.8373 Z"/>
</g>
<g style="fill:rgb(255,255,255); fill-opacity:1.0; stroke-linejoin: miter">
<path d="M625.3385,627.58887C623.808,631.2834,621.391,639.3491,618.7373,648.2573C616.0836,657.1656,613.8728,666.9013,613.1034,677.41187C612.334,687.92236,613.9303,699.0868,619.3081,710.3115C624.6859,721.5362,634.115,732.50806,641.6881,738.6405C649.2612,744.77295,651.6952,746.22076,653.9978,747.371C656.3004,748.5212,658.4619,749.37274,660.47217,749.9062C662.4823,750.43964,664.3126,750.67114,665.5537,750.8738C666.7947,751.07635,666.7947,751.07635,665.97473,750.9116C665.97473,750.9116,664.35693,750.49316,662.70325,749.6271C661.04956,748.7609,659.3041,747.6589,657.4352,746.33484C655.56616,745.0108,653.5708,743.4444,651.49756,741.6873C649.4243,739.93024,638.4448,728.4796,631.8734,717.8018C625.302,707.124,622.2012,697.0094,621.0868,687.2456C619.9724,677.4818,620.57935,667.85284,622.0813,658.4954C623.58325,649.138,625.17676,640.20984,625.18335,635.859C625.6677,627.6294,624.8607,631.4677,625.3385,627.58887 Z"/>
</g>
<g style="fill:url(#grad3); fill-opacity:1.0; stroke-linejoin: miter">
<path d="M288.07785,836.39307C292.12866,824.3746,292.75027,796.99115,288.21014,765.0835C283.67004,733.17584,274.19955,696.9837,260.07,656.5708C245.94043,616.15784,227.14635,571.57574,203.45245,526.6589C179.75858,481.742,153.4598,442.63144,126.35727,406.8459C99.25475,371.06033,71.425606,338.61273,42.718777,309.75677C14.011946,280.90082,-15.898005,256.1615,-38.222923,239.12814C-60.54784,222.09479,-60.54784,222.09479,-46.74785,234.59157C-46.74785,234.59157,-22.397728,263.0088,2.1778755,292.9632C26.753475,322.91754,51.266136,355.07297,75.409515,389.91702C99.5529,424.7611,123.3008,462.40073,146.97298,502.4547C170.64517,542.50867,194.44237,587.2521,214.16122,628.0913C233.8801,668.93054,249.33493,705.51996,260.53244,737.9479C271.72995,770.37573,278.83188,798.7391,282.94357,811.58606C286.56772,836.3312,288.5654,824.495,288.07785,836.39307 Z"/>
</g>
</g>
<defs>
<radialGradient id="grad1" gradientUnits="userSpaceOnUse" cx="362.3416" cy="609.7591" r="400.73627" >
<stop offset="0.0%" style="stop-color:rgb(79,0,90); stop-opacity:1.0" />
<stop offset="100.0%" style="stop-color:rgb(217,0,254); stop-opacity:1.0" />
</radialGradient>
<radialGradient id="grad0" gradientUnits="userSpaceOnUse" cx="420.85303" cy="767.6427" r="425.72812" >
<stop offset="0.0%" style="stop-color:rgb(79,0,90); stop-opacity:1.0" />
<stop offset="100.0%" style="stop-color:rgb(0,192,255); stop-opacity:1.0" />
</radialGradient>
<radialGradient id="grad2" gradientUnits="userSpaceOnUse" cx="568.9098" cy="279.7901" r="427.9875" >
<stop offset="0.0%" style="stop-color:rgb(79,0,90); stop-opacity:1.0" />
<stop offset="100.0%" style="stop-color:rgb(217,0,254); stop-opacity:1.0" />
</radialGradient>
<radialGradient id="grad3" gradientUnits="userSpaceOnUse" cx="-97.10087" cy="305.18942" r="690.3089" >
<stop offset="0.0%" style="stop-color:rgb(254,196,0); stop-opacity:1.0" />
<stop offset="100.0%" style="stop-color:rgb(254,0,71); stop-opacity:1.0" />
</radialGradient>
</defs>
</svg>